<mxfile host="app.diagrams.net" modified="2024-04-15T05:43:49.309Z" agent="Mozilla/5.0 (Windows NT 10.0; Win64; x64) AppleWebKit/537.36 (KHTML, like Gecko) Chrome/123.0.0.0 Safari/537.36" etag="kqd88RStk3gUDT4km0S8" version="24.2.1" type="github">
  <diagram name="第1頁" id="Nsq2vE0gf4O-wGzf9qrE">
    <mxGraphModel dx="1130" dy="667" grid="1" gridSize="10" guides="1" tooltips="1" connect="1" arrows="1" fold="1" page="1" pageScale="1" pageWidth="4000" pageHeight="4000" math="0" shadow="0">
      <root>
        <mxCell id="0" />
        <mxCell id="1" parent="0" />
        <mxCell id="mdeLrJrfzz5SEgivtXzU-1" value="&lt;h1 style=&quot;margin-top: 0px;&quot;&gt;ErP_Monitor_Speedport&lt;/h1&gt;&lt;p&gt;The ErP Monitor script version which done on 4/12, with pure rdkf in phase 3 (integrated on 3/21), the version number of this code base is 4.1.7&lt;/p&gt;" style="text;html=1;whiteSpace=wrap;overflow=hidden;rounded=0;" vertex="1" parent="1">
          <mxGeometry x="10" y="10" width="300" height="120" as="geometry" />
        </mxCell>
        <mxCell id="mdeLrJrfzz5SEgivtXzU-20" style="edgeStyle=orthogonalEdgeStyle;rounded=0;orthogonalLoop=1;jettySize=auto;html=1;entryX=0.5;entryY=0;entryDx=0;entryDy=0;fontFamily=Times New Roman;fontSize=16;fontColor=default;" edge="1" parent="1" source="mdeLrJrfzz5SEgivtXzU-2" target="mdeLrJrfzz5SEgivtXzU-10">
          <mxGeometry relative="1" as="geometry" />
        </mxCell>
        <mxCell id="mdeLrJrfzz5SEgivtXzU-2" value="&lt;font color=&quot;#ff0000&quot;&gt;Main&lt;br&gt;&lt;/font&gt;(&lt;b&gt;&lt;font color=&quot;#00cc00&quot;&gt;void&lt;/font&gt;&lt;/b&gt;)" style="rounded=1;whiteSpace=wrap;html=1;fillColor=none;fontFamily=Times New Roman;fontSize=16;" vertex="1" parent="1">
          <mxGeometry x="400" y="70" width="80" height="50" as="geometry" />
        </mxCell>
        <mxCell id="mdeLrJrfzz5SEgivtXzU-21" value="" style="edgeStyle=orthogonalEdgeStyle;rounded=0;orthogonalLoop=1;jettySize=auto;html=1;fontFamily=Times New Roman;fontSize=16;fontColor=default;" edge="1" parent="1" source="mdeLrJrfzz5SEgivtXzU-10" target="mdeLrJrfzz5SEgivtXzU-18">
          <mxGeometry relative="1" as="geometry" />
        </mxCell>
        <mxCell id="mdeLrJrfzz5SEgivtXzU-10" value="Initial Values" style="swimlane;fontStyle=0;childLayout=stackLayout;horizontal=1;startSize=30;horizontalStack=0;resizeParent=1;resizeParentMax=0;resizeLast=0;collapsible=1;marginBottom=0;whiteSpace=wrap;html=1;rounded=1;strokeColor=default;align=center;verticalAlign=middle;fontFamily=Times New Roman;fontSize=16;fontColor=default;fillColor=none;" vertex="1" parent="1">
          <mxGeometry x="370" y="150" width="140" height="180" as="geometry">
            <mxRectangle x="375" y="150" width="130" height="30" as="alternateBounds" />
          </mxGeometry>
        </mxCell>
        <mxCell id="mdeLrJrfzz5SEgivtXzU-11" value="&lt;b style=&quot;color: rgb(255, 0, 0);&quot;&gt;erp_appliable=0&lt;/b&gt;" style="text;strokeColor=none;fillColor=none;align=left;verticalAlign=middle;spacingLeft=4;spacingRight=4;overflow=hidden;points=[[0,0.5],[1,0.5]];portConstraint=eastwest;rotatable=0;whiteSpace=wrap;html=1;fontFamily=Times New Roman;fontSize=16;fontColor=default;" vertex="1" parent="mdeLrJrfzz5SEgivtXzU-10">
          <mxGeometry y="30" width="140" height="25" as="geometry" />
        </mxCell>
        <mxCell id="mdeLrJrfzz5SEgivtXzU-12" value="&lt;b style=&quot;color: rgb(255, 0, 0);&quot;&gt;in_erp_mode=0&lt;/b&gt;" style="text;strokeColor=none;fillColor=none;align=left;verticalAlign=middle;spacingLeft=4;spacingRight=4;overflow=hidden;points=[[0,0.5],[1,0.5]];portConstraint=eastwest;rotatable=0;whiteSpace=wrap;html=1;fontFamily=Times New Roman;fontSize=16;fontColor=default;" vertex="1" parent="mdeLrJrfzz5SEgivtXzU-10">
          <mxGeometry y="55" width="140" height="25" as="geometry" />
        </mxCell>
        <mxCell id="mdeLrJrfzz5SEgivtXzU-13" value="&lt;b style=&quot;color: rgb(255, 0, 0);&quot;&gt;btn_press_time=0&lt;/b&gt;" style="text;strokeColor=none;fillColor=none;align=left;verticalAlign=middle;spacingLeft=4;spacingRight=4;overflow=hidden;points=[[0,0.5],[1,0.5]];portConstraint=eastwest;rotatable=0;whiteSpace=wrap;html=1;fontFamily=Times New Roman;fontSize=16;fontColor=default;" vertex="1" parent="mdeLrJrfzz5SEgivtXzU-10">
          <mxGeometry y="80" width="140" height="25" as="geometry" />
        </mxCell>
        <mxCell id="mdeLrJrfzz5SEgivtXzU-16" value="&lt;div&gt;&lt;b&gt;cs={&lt;/b&gt;&lt;font color=&quot;#ff0000&quot;&gt;&lt;b&gt;1&lt;/b&gt;&lt;/font&gt;&lt;b&gt;,&lt;/b&gt;&amp;nbsp;&lt;b style=&quot;color: rgb(255, 0, 0);&quot;&gt;1&lt;/b&gt;&lt;b&gt;,&amp;nbsp;&lt;/b&gt;&lt;b style=&quot;color: rgb(255, 0, 0);&quot;&gt;1&lt;/b&gt;&lt;b&gt;,&lt;/b&gt;&amp;nbsp;&lt;b style=&quot;color: rgb(255, 0, 0);&quot;&gt;1&lt;/b&gt;&lt;b&gt;,&lt;/b&gt;&amp;nbsp;&lt;b style=&quot;color: rgb(255, 0, 0);&quot;&gt;1&lt;/b&gt;&lt;b&gt;}&lt;/b&gt;&lt;/div&gt;" style="text;strokeColor=none;fillColor=none;align=left;verticalAlign=middle;spacingLeft=4;spacingRight=4;overflow=hidden;points=[[0,0.5],[1,0.5]];portConstraint=eastwest;rotatable=0;whiteSpace=wrap;html=1;fontFamily=Times New Roman;fontSize=16;fontColor=default;" vertex="1" parent="mdeLrJrfzz5SEgivtXzU-10">
          <mxGeometry y="105" width="140" height="25" as="geometry" />
        </mxCell>
        <mxCell id="mdeLrJrfzz5SEgivtXzU-15" value="&lt;b&gt;&lt;font color=&quot;#ff0000&quot;&gt;button_pressed=0&lt;/font&gt;&lt;/b&gt;" style="text;strokeColor=none;fillColor=none;align=left;verticalAlign=middle;spacingLeft=4;spacingRight=4;overflow=hidden;points=[[0,0.5],[1,0.5]];portConstraint=eastwest;rotatable=0;whiteSpace=wrap;html=1;fontFamily=Times New Roman;fontSize=16;fontColor=default;" vertex="1" parent="mdeLrJrfzz5SEgivtXzU-10">
          <mxGeometry y="130" width="140" height="25" as="geometry" />
        </mxCell>
        <mxCell id="mdeLrJrfzz5SEgivtXzU-14" value="&lt;b&gt;&lt;font color=&quot;#ff0000&quot;&gt;sta_assoc=0&lt;/font&gt;&lt;/b&gt;" style="text;strokeColor=none;fillColor=none;align=left;verticalAlign=middle;spacingLeft=4;spacingRight=4;overflow=hidden;points=[[0,0.5],[1,0.5]];portConstraint=eastwest;rotatable=0;whiteSpace=wrap;html=1;fontFamily=Times New Roman;fontSize=16;fontColor=default;" vertex="1" parent="mdeLrJrfzz5SEgivtXzU-10">
          <mxGeometry y="155" width="140" height="25" as="geometry" />
        </mxCell>
        <mxCell id="mdeLrJrfzz5SEgivtXzU-25" style="edgeStyle=orthogonalEdgeStyle;rounded=0;orthogonalLoop=1;jettySize=auto;html=1;fontFamily=Times New Roman;fontSize=16;fontColor=default;" edge="1" parent="1" source="mdeLrJrfzz5SEgivtXzU-18" target="mdeLrJrfzz5SEgivtXzU-22">
          <mxGeometry relative="1" as="geometry" />
        </mxCell>
        <mxCell id="mdeLrJrfzz5SEgivtXzU-18" value="Sleep 180" style="rounded=1;whiteSpace=wrap;html=1;strokeColor=default;align=center;verticalAlign=middle;fontFamily=Times New Roman;fontSize=16;fontColor=default;fillColor=none;" vertex="1" parent="1">
          <mxGeometry x="395" y="360" width="90" height="40" as="geometry" />
        </mxCell>
        <mxCell id="mdeLrJrfzz5SEgivtXzU-26" style="edgeStyle=orthogonalEdgeStyle;rounded=0;orthogonalLoop=1;jettySize=auto;html=1;fontFamily=Times New Roman;fontSize=16;fontColor=default;" edge="1" parent="1" source="mdeLrJrfzz5SEgivtXzU-22" target="mdeLrJrfzz5SEgivtXzU-23">
          <mxGeometry relative="1" as="geometry" />
        </mxCell>
        <mxCell id="mdeLrJrfzz5SEgivtXzU-22" value="ps | grep &#39;[/]userfs/bin/hsm&#39; | awk &#39;{print $8}&#39;" style="rounded=1;whiteSpace=wrap;html=1;strokeColor=default;align=center;verticalAlign=middle;fontFamily=Times New Roman;fontSize=16;fontColor=default;fillColor=none;" vertex="1" parent="1">
          <mxGeometry x="285" y="440" width="310" height="40" as="geometry" />
        </mxCell>
        <mxCell id="mdeLrJrfzz5SEgivtXzU-29" value="" style="edgeStyle=orthogonalEdgeStyle;rounded=0;orthogonalLoop=1;jettySize=auto;html=1;fontFamily=Times New Roman;fontSize=16;fontColor=default;" edge="1" parent="1" source="mdeLrJrfzz5SEgivtXzU-23" target="mdeLrJrfzz5SEgivtXzU-27">
          <mxGeometry relative="1" as="geometry" />
        </mxCell>
        <mxCell id="mdeLrJrfzz5SEgivtXzU-30" style="edgeStyle=orthogonalEdgeStyle;rounded=0;orthogonalLoop=1;jettySize=auto;html=1;entryX=0.5;entryY=0;entryDx=0;entryDy=0;fontFamily=Times New Roman;fontSize=16;fontColor=default;" edge="1" parent="1" source="mdeLrJrfzz5SEgivtXzU-23" target="mdeLrJrfzz5SEgivtXzU-28">
          <mxGeometry relative="1" as="geometry" />
        </mxCell>
        <mxCell id="mdeLrJrfzz5SEgivtXzU-23" value="Result exist?" style="rhombus;whiteSpace=wrap;html=1;rounded=0;strokeColor=default;align=center;verticalAlign=middle;fontFamily=Times New Roman;fontSize=16;fontColor=default;fillColor=none;" vertex="1" parent="1">
          <mxGeometry x="375" y="510" width="130" height="70" as="geometry" />
        </mxCell>
        <mxCell id="mdeLrJrfzz5SEgivtXzU-34" style="edgeStyle=orthogonalEdgeStyle;rounded=0;orthogonalLoop=1;jettySize=auto;html=1;fontFamily=Times New Roman;fontSize=16;fontColor=default;" edge="1" parent="1" source="mdeLrJrfzz5SEgivtXzU-27" target="mdeLrJrfzz5SEgivtXzU-33">
          <mxGeometry relative="1" as="geometry" />
        </mxCell>
        <mxCell id="mdeLrJrfzz5SEgivtXzU-27" value="&lt;b&gt;&lt;font color=&quot;#6666ff&quot;&gt;dsl_mac=result&lt;/font&gt;&lt;/b&gt;" style="rounded=0;whiteSpace=wrap;html=1;strokeColor=default;align=center;verticalAlign=middle;fontFamily=Times New Roman;fontSize=16;fontColor=default;fillColor=none;" vertex="1" parent="1">
          <mxGeometry x="380" y="620" width="120" height="40" as="geometry" />
        </mxCell>
        <mxCell id="mdeLrJrfzz5SEgivtXzU-40" style="edgeStyle=orthogonalEdgeStyle;rounded=0;orthogonalLoop=1;jettySize=auto;html=1;exitX=0.5;exitY=1;exitDx=0;exitDy=0;entryX=0.5;entryY=0;entryDx=0;entryDy=0;fontFamily=Times New Roman;fontSize=16;fontColor=default;" edge="1" parent="1" source="mdeLrJrfzz5SEgivtXzU-28" target="mdeLrJrfzz5SEgivtXzU-33">
          <mxGeometry relative="1" as="geometry" />
        </mxCell>
        <mxCell id="mdeLrJrfzz5SEgivtXzU-28" value="dsl_mac=02e0bb012340" style="rounded=1;whiteSpace=wrap;html=1;strokeColor=#9673a6;align=center;verticalAlign=middle;fontFamily=Times New Roman;fontSize=16;fillColor=#e1d5e7;" vertex="1" parent="1">
          <mxGeometry x="560" y="620" width="190" height="40" as="geometry" />
        </mxCell>
        <mxCell id="mdeLrJrfzz5SEgivtXzU-31" value="&lt;font style=&quot;font-size: 14px;&quot;&gt;True&lt;/font&gt;" style="text;html=1;align=center;verticalAlign=middle;whiteSpace=wrap;rounded=0;fontFamily=Times New Roman;fontSize=16;fontColor=default;" vertex="1" parent="1">
          <mxGeometry x="440" y="580" width="40" height="30" as="geometry" />
        </mxCell>
        <mxCell id="mdeLrJrfzz5SEgivtXzU-32" value="&lt;font style=&quot;font-size: 14px;&quot;&gt;False&lt;/font&gt;" style="text;html=1;align=center;verticalAlign=middle;whiteSpace=wrap;rounded=0;fontFamily=Times New Roman;fontSize=16;fontColor=default;" vertex="1" parent="1">
          <mxGeometry x="510" y="520" width="40" height="30" as="geometry" />
        </mxCell>
        <mxCell id="mdeLrJrfzz5SEgivtXzU-37" value="" style="edgeStyle=orthogonalEdgeStyle;rounded=0;orthogonalLoop=1;jettySize=auto;html=1;fontFamily=Times New Roman;fontSize=16;fontColor=default;" edge="1" parent="1" source="mdeLrJrfzz5SEgivtXzU-33" target="mdeLrJrfzz5SEgivtXzU-36">
          <mxGeometry relative="1" as="geometry" />
        </mxCell>
        <mxCell id="mdeLrJrfzz5SEgivtXzU-39" style="edgeStyle=orthogonalEdgeStyle;rounded=0;orthogonalLoop=1;jettySize=auto;html=1;exitX=1;exitY=0.5;exitDx=0;exitDy=0;fontFamily=Times New Roman;fontSize=16;fontColor=default;" edge="1" parent="1" source="mdeLrJrfzz5SEgivtXzU-33" target="mdeLrJrfzz5SEgivtXzU-38">
          <mxGeometry relative="1" as="geometry" />
        </mxCell>
        <mxCell id="mdeLrJrfzz5SEgivtXzU-33" value="Check format&lt;div&gt;of dsl_mac&lt;/div&gt;" style="rhombus;whiteSpace=wrap;html=1;rounded=0;strokeColor=default;align=center;verticalAlign=middle;fontFamily=Times New Roman;fontSize=16;fontColor=default;fillColor=none;" vertex="1" parent="1">
          <mxGeometry x="360" y="720" width="160" height="80" as="geometry" />
        </mxCell>
        <mxCell id="mdeLrJrfzz5SEgivtXzU-46" value="" style="edgeStyle=orthogonalEdgeStyle;rounded=0;orthogonalLoop=1;jettySize=auto;html=1;fontFamily=Times New Roman;fontSize=16;fontColor=default;" edge="1" parent="1" source="mdeLrJrfzz5SEgivtXzU-36" target="mdeLrJrfzz5SEgivtXzU-44">
          <mxGeometry relative="1" as="geometry" />
        </mxCell>
        <mxCell id="mdeLrJrfzz5SEgivtXzU-36" value="Infinite&lt;div&gt;while loop&lt;/div&gt;" style="rhombus;whiteSpace=wrap;html=1;rounded=0;strokeColor=default;align=center;verticalAlign=middle;fontFamily=Times New Roman;fontSize=16;fontColor=default;fillColor=none;" vertex="1" parent="1">
          <mxGeometry x="360" y="910" width="160" height="80" as="geometry" />
        </mxCell>
        <mxCell id="mdeLrJrfzz5SEgivtXzU-43" style="edgeStyle=orthogonalEdgeStyle;rounded=0;orthogonalLoop=1;jettySize=auto;html=1;exitX=0.5;exitY=1;exitDx=0;exitDy=0;entryX=0.5;entryY=0;entryDx=0;entryDy=0;fontFamily=Times New Roman;fontSize=16;fontColor=default;" edge="1" parent="1" source="mdeLrJrfzz5SEgivtXzU-38" target="mdeLrJrfzz5SEgivtXzU-36">
          <mxGeometry relative="1" as="geometry" />
        </mxCell>
        <mxCell id="mdeLrJrfzz5SEgivtXzU-38" value="dsl_mac=02e0bb012340" style="rounded=1;whiteSpace=wrap;html=1;strokeColor=#9673a6;align=center;verticalAlign=middle;fontFamily=Times New Roman;fontSize=16;fillColor=#e1d5e7;" vertex="1" parent="1">
          <mxGeometry x="560" y="810" width="190" height="40" as="geometry" />
        </mxCell>
        <mxCell id="mdeLrJrfzz5SEgivtXzU-41" value="&lt;font style=&quot;font-size: 14px;&quot;&gt;False&lt;/font&gt;" style="text;html=1;align=center;verticalAlign=middle;whiteSpace=wrap;rounded=0;fontFamily=Times New Roman;fontSize=16;fontColor=default;" vertex="1" parent="1">
          <mxGeometry x="520" y="730" width="40" height="30" as="geometry" />
        </mxCell>
        <mxCell id="mdeLrJrfzz5SEgivtXzU-42" value="&lt;font style=&quot;font-size: 14px;&quot;&gt;True&lt;/font&gt;" style="text;html=1;align=center;verticalAlign=middle;whiteSpace=wrap;rounded=0;fontFamily=Times New Roman;fontSize=16;fontColor=default;" vertex="1" parent="1">
          <mxGeometry x="440" y="810" width="40" height="30" as="geometry" />
        </mxCell>
        <mxCell id="mdeLrJrfzz5SEgivtXzU-47" value="" style="edgeStyle=orthogonalEdgeStyle;rounded=0;orthogonalLoop=1;jettySize=auto;html=1;fontFamily=Times New Roman;fontSize=16;fontColor=default;" edge="1" parent="1" source="mdeLrJrfzz5SEgivtXzU-44" target="mdeLrJrfzz5SEgivtXzU-45">
          <mxGeometry relative="1" as="geometry" />
        </mxCell>
        <mxCell id="mdeLrJrfzz5SEgivtXzU-44" value="&lt;b&gt;&lt;font color=&quot;#ff0000&quot;&gt;next_check_second=180&lt;/font&gt;&lt;/b&gt;" style="rounded=0;whiteSpace=wrap;html=1;strokeColor=default;align=center;verticalAlign=middle;fontFamily=Times New Roman;fontSize=16;fontColor=default;fillColor=none;" vertex="1" parent="1">
          <mxGeometry x="347.5" y="1030" width="185" height="40" as="geometry" />
        </mxCell>
        <mxCell id="mdeLrJrfzz5SEgivtXzU-75" style="edgeStyle=orthogonalEdgeStyle;rounded=0;orthogonalLoop=1;jettySize=auto;html=1;entryX=0;entryY=0.5;entryDx=0;entryDy=0;fontFamily=Times New Roman;fontSize=16;fontColor=default;" edge="1" parent="1" source="mdeLrJrfzz5SEgivtXzU-45" target="mdeLrJrfzz5SEgivtXzU-48">
          <mxGeometry relative="1" as="geometry">
            <Array as="points">
              <mxPoint x="790" y="1145" />
              <mxPoint x="790" y="145" />
            </Array>
          </mxGeometry>
        </mxCell>
        <mxCell id="mdeLrJrfzz5SEgivtXzU-45" value="" style="ellipse;whiteSpace=wrap;html=1;aspect=fixed;rounded=0;strokeColor=default;align=center;verticalAlign=middle;fontFamily=Times New Roman;fontSize=16;fontColor=default;fillColor=none;" vertex="1" parent="1">
          <mxGeometry x="435" y="1140" width="10" height="10" as="geometry" />
        </mxCell>
        <mxCell id="mdeLrJrfzz5SEgivtXzU-57" value="" style="edgeStyle=orthogonalEdgeStyle;rounded=0;orthogonalLoop=1;jettySize=auto;html=1;fontFamily=Times New Roman;fontSize=16;fontColor=default;" edge="1" parent="1" source="mdeLrJrfzz5SEgivtXzU-48" target="mdeLrJrfzz5SEgivtXzU-49">
          <mxGeometry relative="1" as="geometry" />
        </mxCell>
        <mxCell id="mdeLrJrfzz5SEgivtXzU-48" value="&lt;font color=&quot;#00cc00&quot;&gt;check_erp_condition&lt;/font&gt;&lt;br&gt;(&lt;b&gt;*cps, *cs, &lt;font color=&quot;#ff0000&quot;&gt;*erp_appliable&lt;/font&gt;&lt;/b&gt;)" style="rounded=1;whiteSpace=wrap;html=1;fillColor=none;fontFamily=Times New Roman;fontSize=16;" vertex="1" parent="1">
          <mxGeometry x="840" y="120" width="240" height="50" as="geometry" />
        </mxCell>
        <mxCell id="mdeLrJrfzz5SEgivtXzU-58" value="" style="edgeStyle=orthogonalEdgeStyle;rounded=0;orthogonalLoop=1;jettySize=auto;html=1;fontFamily=Times New Roman;fontSize=16;fontColor=default;" edge="1" parent="1" source="mdeLrJrfzz5SEgivtXzU-49" target="mdeLrJrfzz5SEgivtXzU-50">
          <mxGeometry relative="1" as="geometry" />
        </mxCell>
        <mxCell id="mdeLrJrfzz5SEgivtXzU-49" value="&lt;font color=&quot;#ff0000&quot;&gt;check_wifi_status&lt;/font&gt;&lt;div&gt;(&lt;b&gt;*cps&lt;/b&gt;)&lt;/div&gt;" style="rounded=1;whiteSpace=wrap;html=1;strokeColor=default;align=center;verticalAlign=middle;fontFamily=Times New Roman;fontSize=16;fontColor=default;fillColor=none;" vertex="1" parent="1">
          <mxGeometry x="865" y="230" width="190" height="60" as="geometry" />
        </mxCell>
        <mxCell id="mdeLrJrfzz5SEgivtXzU-59" value="" style="edgeStyle=orthogonalEdgeStyle;rounded=0;orthogonalLoop=1;jettySize=auto;html=1;fontFamily=Times New Roman;fontSize=16;fontColor=default;" edge="1" parent="1" source="mdeLrJrfzz5SEgivtXzU-50" target="mdeLrJrfzz5SEgivtXzU-51">
          <mxGeometry relative="1" as="geometry" />
        </mxCell>
        <mxCell id="mdeLrJrfzz5SEgivtXzU-50" value="ifconfig | grep -c ra0" style="rounded=1;whiteSpace=wrap;html=1;strokeColor=#9673a6;align=center;verticalAlign=middle;fontFamily=Times New Roman;fontSize=16;fillColor=#e1d5e7;" vertex="1" parent="1">
          <mxGeometry x="880" y="330" width="160" height="50" as="geometry" />
        </mxCell>
        <mxCell id="mdeLrJrfzz5SEgivtXzU-55" value="" style="edgeStyle=orthogonalEdgeStyle;rounded=0;orthogonalLoop=1;jettySize=auto;html=1;fontFamily=Times New Roman;fontSize=16;fontColor=default;" edge="1" parent="1" source="mdeLrJrfzz5SEgivtXzU-51" target="mdeLrJrfzz5SEgivtXzU-53">
          <mxGeometry relative="1" as="geometry" />
        </mxCell>
        <mxCell id="mdeLrJrfzz5SEgivtXzU-56" style="edgeStyle=orthogonalEdgeStyle;rounded=0;orthogonalLoop=1;jettySize=auto;html=1;exitX=1;exitY=0.5;exitDx=0;exitDy=0;entryX=0.5;entryY=0;entryDx=0;entryDy=0;fontFamily=Times New Roman;fontSize=16;fontColor=default;" edge="1" parent="1" source="mdeLrJrfzz5SEgivtXzU-51" target="mdeLrJrfzz5SEgivtXzU-54">
          <mxGeometry relative="1" as="geometry" />
        </mxCell>
        <mxCell id="mdeLrJrfzz5SEgivtXzU-51" value="result =1?" style="rhombus;whiteSpace=wrap;html=1;rounded=0;strokeColor=default;align=center;verticalAlign=middle;fontFamily=Times New Roman;fontSize=16;fontColor=default;fillColor=none;" vertex="1" parent="1">
          <mxGeometry x="905" y="420" width="110" height="60" as="geometry" />
        </mxCell>
        <mxCell id="mdeLrJrfzz5SEgivtXzU-72" value="" style="edgeStyle=orthogonalEdgeStyle;rounded=0;orthogonalLoop=1;jettySize=auto;html=1;fontFamily=Times New Roman;fontSize=16;fontColor=default;" edge="1" parent="1" source="mdeLrJrfzz5SEgivtXzU-53" target="mdeLrJrfzz5SEgivtXzU-64">
          <mxGeometry relative="1" as="geometry" />
        </mxCell>
        <mxCell id="mdeLrJrfzz5SEgivtXzU-53" value="&lt;font color=&quot;#ff0000&quot;&gt;&lt;b&gt;cps&lt;/b&gt;&lt;/font&gt;&lt;b&gt;&lt;font color=&quot;#ff0000&quot;&gt;&lt;font face=&quot;Lucida Console&quot;&gt;-&amp;gt;&lt;/font&gt;&lt;/font&gt;&lt;/b&gt;&lt;font color=&quot;#ff0000&quot;&gt;&lt;b&gt;wifi_2g_enable=1&lt;/b&gt;&lt;/font&gt;" style="rounded=0;whiteSpace=wrap;html=1;strokeColor=default;align=center;verticalAlign=middle;fontFamily=Times New Roman;fontSize=16;fontColor=default;fillColor=none;" vertex="1" parent="1">
          <mxGeometry x="870" y="520" width="180" height="40" as="geometry" />
        </mxCell>
        <mxCell id="mdeLrJrfzz5SEgivtXzU-112" style="edgeStyle=orthogonalEdgeStyle;rounded=0;orthogonalLoop=1;jettySize=auto;html=1;exitX=0.5;exitY=1;exitDx=0;exitDy=0;entryX=1;entryY=0.5;entryDx=0;entryDy=0;fontFamily=Times New Roman;fontSize=16;fontColor=default;" edge="1" parent="1" source="mdeLrJrfzz5SEgivtXzU-54" target="mdeLrJrfzz5SEgivtXzU-64">
          <mxGeometry relative="1" as="geometry" />
        </mxCell>
        <mxCell id="mdeLrJrfzz5SEgivtXzU-54" value="&lt;font color=&quot;#ff0000&quot;&gt;&lt;b&gt;cps&lt;/b&gt;&lt;/font&gt;&lt;b&gt;&lt;font color=&quot;#ff0000&quot;&gt;&lt;font face=&quot;Lucida Console&quot;&gt;-&amp;gt;&lt;/font&gt;&lt;/font&gt;&lt;/b&gt;&lt;font color=&quot;#ff0000&quot;&gt;&lt;b&gt;wifi_2g_enable=0&lt;/b&gt;&lt;/font&gt;" style="rounded=0;whiteSpace=wrap;html=1;strokeColor=default;align=center;verticalAlign=middle;fontFamily=Times New Roman;fontSize=16;fontColor=default;fillColor=none;" vertex="1" parent="1">
          <mxGeometry x="1080" y="520" width="180" height="40" as="geometry" />
        </mxCell>
        <mxCell id="mdeLrJrfzz5SEgivtXzU-60" value="&lt;font style=&quot;font-size: 14px;&quot;&gt;True&lt;/font&gt;" style="text;html=1;align=center;verticalAlign=middle;whiteSpace=wrap;rounded=0;fontFamily=Times New Roman;fontSize=16;fontColor=default;" vertex="1" parent="1">
          <mxGeometry x="960" y="480" width="40" height="30" as="geometry" />
        </mxCell>
        <mxCell id="mdeLrJrfzz5SEgivtXzU-61" value="&lt;font style=&quot;font-size: 14px;&quot;&gt;False&lt;/font&gt;" style="text;html=1;align=center;verticalAlign=middle;whiteSpace=wrap;rounded=0;fontFamily=Times New Roman;fontSize=16;fontColor=default;" vertex="1" parent="1">
          <mxGeometry x="1015" y="420" width="40" height="30" as="geometry" />
        </mxCell>
        <mxCell id="mdeLrJrfzz5SEgivtXzU-63" value="" style="edgeStyle=orthogonalEdgeStyle;rounded=0;orthogonalLoop=1;jettySize=auto;html=1;fontFamily=Times New Roman;fontSize=16;fontColor=default;" edge="1" parent="1" source="mdeLrJrfzz5SEgivtXzU-64" target="mdeLrJrfzz5SEgivtXzU-67">
          <mxGeometry relative="1" as="geometry" />
        </mxCell>
        <mxCell id="mdeLrJrfzz5SEgivtXzU-64" value="ifconfig | grep -c ra1" style="rounded=1;whiteSpace=wrap;html=1;strokeColor=#9673a6;align=center;verticalAlign=middle;fontFamily=Times New Roman;fontSize=16;fillColor=#e1d5e7;" vertex="1" parent="1">
          <mxGeometry x="880" y="600" width="160" height="50" as="geometry" />
        </mxCell>
        <mxCell id="mdeLrJrfzz5SEgivtXzU-65" value="" style="edgeStyle=orthogonalEdgeStyle;rounded=0;orthogonalLoop=1;jettySize=auto;html=1;fontFamily=Times New Roman;fontSize=16;fontColor=default;" edge="1" parent="1" source="mdeLrJrfzz5SEgivtXzU-67" target="mdeLrJrfzz5SEgivtXzU-68">
          <mxGeometry relative="1" as="geometry" />
        </mxCell>
        <mxCell id="mdeLrJrfzz5SEgivtXzU-66" style="edgeStyle=orthogonalEdgeStyle;rounded=0;orthogonalLoop=1;jettySize=auto;html=1;exitX=1;exitY=0.5;exitDx=0;exitDy=0;entryX=0.5;entryY=0;entryDx=0;entryDy=0;fontFamily=Times New Roman;fontSize=16;fontColor=default;" edge="1" parent="1" source="mdeLrJrfzz5SEgivtXzU-67" target="mdeLrJrfzz5SEgivtXzU-69">
          <mxGeometry relative="1" as="geometry" />
        </mxCell>
        <mxCell id="mdeLrJrfzz5SEgivtXzU-67" value="result =1?" style="rhombus;whiteSpace=wrap;html=1;rounded=0;strokeColor=default;align=center;verticalAlign=middle;fontFamily=Times New Roman;fontSize=16;fontColor=default;fillColor=none;" vertex="1" parent="1">
          <mxGeometry x="905" y="690" width="110" height="60" as="geometry" />
        </mxCell>
        <mxCell id="mdeLrJrfzz5SEgivtXzU-77" value="" style="edgeStyle=orthogonalEdgeStyle;rounded=0;orthogonalLoop=1;jettySize=auto;html=1;fontFamily=Times New Roman;fontSize=16;fontColor=default;" edge="1" parent="1" source="mdeLrJrfzz5SEgivtXzU-68" target="mdeLrJrfzz5SEgivtXzU-76">
          <mxGeometry relative="1" as="geometry" />
        </mxCell>
        <mxCell id="mdeLrJrfzz5SEgivtXzU-68" value="&lt;font color=&quot;#ff0000&quot;&gt;&lt;b&gt;cps-&amp;gt;wifi_5g_enable=1&lt;/b&gt;&lt;/font&gt;" style="rounded=0;whiteSpace=wrap;html=1;strokeColor=default;align=center;verticalAlign=middle;fontFamily=Times New Roman;fontSize=16;fontColor=default;fillColor=none;" vertex="1" parent="1">
          <mxGeometry x="870" y="790" width="180" height="40" as="geometry" />
        </mxCell>
        <mxCell id="mdeLrJrfzz5SEgivtXzU-78" style="edgeStyle=orthogonalEdgeStyle;rounded=0;orthogonalLoop=1;jettySize=auto;html=1;exitX=0.5;exitY=1;exitDx=0;exitDy=0;entryX=0.5;entryY=0;entryDx=0;entryDy=0;fontFamily=Times New Roman;fontSize=16;fontColor=default;" edge="1" parent="1" source="mdeLrJrfzz5SEgivtXzU-69" target="mdeLrJrfzz5SEgivtXzU-76">
          <mxGeometry relative="1" as="geometry" />
        </mxCell>
        <mxCell id="mdeLrJrfzz5SEgivtXzU-69" value="&lt;font color=&quot;#ff0000&quot;&gt;&lt;b&gt;cps-&amp;gt;wifi_5g_enable=0&lt;/b&gt;&lt;/font&gt;" style="rounded=0;whiteSpace=wrap;html=1;strokeColor=default;align=center;verticalAlign=middle;fontFamily=Times New Roman;fontSize=16;fontColor=default;fillColor=none;" vertex="1" parent="1">
          <mxGeometry x="1080" y="790" width="180" height="40" as="geometry" />
        </mxCell>
        <mxCell id="mdeLrJrfzz5SEgivtXzU-70" value="&lt;font style=&quot;font-size: 14px;&quot;&gt;True&lt;/font&gt;" style="text;html=1;align=center;verticalAlign=middle;whiteSpace=wrap;rounded=0;fontFamily=Times New Roman;fontSize=16;fontColor=default;" vertex="1" parent="1">
          <mxGeometry x="960" y="750" width="40" height="30" as="geometry" />
        </mxCell>
        <mxCell id="mdeLrJrfzz5SEgivtXzU-71" value="&lt;font style=&quot;font-size: 14px;&quot;&gt;False&lt;/font&gt;" style="text;html=1;align=center;verticalAlign=middle;whiteSpace=wrap;rounded=0;fontFamily=Times New Roman;fontSize=16;fontColor=default;" vertex="1" parent="1">
          <mxGeometry x="1015" y="690" width="40" height="30" as="geometry" />
        </mxCell>
        <mxCell id="mdeLrJrfzz5SEgivtXzU-106" style="edgeStyle=orthogonalEdgeStyle;rounded=0;orthogonalLoop=1;jettySize=auto;html=1;exitX=0.5;exitY=1;exitDx=0;exitDy=0;entryX=0;entryY=0.5;entryDx=0;entryDy=0;fontFamily=Times New Roman;fontSize=16;fontColor=default;" edge="1" parent="1" source="mdeLrJrfzz5SEgivtXzU-76" target="mdeLrJrfzz5SEgivtXzU-79">
          <mxGeometry relative="1" as="geometry">
            <Array as="points">
              <mxPoint x="960" y="960" />
              <mxPoint x="1280" y="960" />
              <mxPoint x="1280" y="260" />
            </Array>
          </mxGeometry>
        </mxCell>
        <mxCell id="mdeLrJrfzz5SEgivtXzU-76" value="return 0" style="rounded=1;whiteSpace=wrap;html=1;strokeColor=default;align=center;verticalAlign=middle;fontFamily=Times New Roman;fontSize=16;fontColor=default;fillColor=none;" vertex="1" parent="1">
          <mxGeometry x="917.5" y="890" width="85" height="40" as="geometry" />
        </mxCell>
        <mxCell id="mdeLrJrfzz5SEgivtXzU-149" style="edgeStyle=orthogonalEdgeStyle;rounded=0;orthogonalLoop=1;jettySize=auto;html=1;exitX=0.5;exitY=1;exitDx=0;exitDy=0;entryX=0.5;entryY=0;entryDx=0;entryDy=0;fontFamily=Times New Roman;fontSize=16;fontColor=default;" edge="1" parent="1" source="mdeLrJrfzz5SEgivtXzU-79" target="mdeLrJrfzz5SEgivtXzU-148">
          <mxGeometry relative="1" as="geometry" />
        </mxCell>
        <mxCell id="mdeLrJrfzz5SEgivtXzU-79" value="&lt;font color=&quot;#ff0000&quot;&gt;check_lan_plug&lt;/font&gt;&lt;br&gt;&lt;div&gt;(&lt;b&gt;*cps&lt;/b&gt;)&lt;/div&gt;" style="rounded=1;whiteSpace=wrap;html=1;strokeColor=default;align=center;verticalAlign=middle;fontFamily=Times New Roman;fontSize=16;fontColor=default;fillColor=none;" vertex="1" parent="1">
          <mxGeometry x="1365" y="230" width="190" height="60" as="geometry" />
        </mxCell>
        <mxCell id="mdeLrJrfzz5SEgivtXzU-91" style="edgeStyle=orthogonalEdgeStyle;rounded=0;orthogonalLoop=1;jettySize=auto;html=1;exitX=0.5;exitY=1;exitDx=0;exitDy=0;entryX=0.5;entryY=0;entryDx=0;entryDy=0;fontFamily=Times New Roman;fontSize=16;fontColor=default;" edge="1" parent="1" source="mdeLrJrfzz5SEgivtXzU-80" target="mdeLrJrfzz5SEgivtXzU-82">
          <mxGeometry relative="1" as="geometry" />
        </mxCell>
        <mxCell id="mdeLrJrfzz5SEgivtXzU-151" style="edgeStyle=orthogonalEdgeStyle;rounded=0;orthogonalLoop=1;jettySize=auto;html=1;exitX=1;exitY=0.5;exitDx=0;exitDy=0;entryX=0.5;entryY=0;entryDx=0;entryDy=0;fontFamily=Times New Roman;fontSize=16;fontColor=default;" edge="1" parent="1" source="mdeLrJrfzz5SEgivtXzU-80" target="mdeLrJrfzz5SEgivtXzU-103">
          <mxGeometry relative="1" as="geometry">
            <Array as="points">
              <mxPoint x="1600" y="475" />
              <mxPoint x="1600" y="880" />
              <mxPoint x="1458" y="880" />
            </Array>
          </mxGeometry>
        </mxCell>
        <mxCell id="mdeLrJrfzz5SEgivtXzU-80" value="i &amp;lt;= 3" style="rhombus;whiteSpace=wrap;html=1;rounded=0;strokeColor=default;align=center;verticalAlign=middle;fontFamily=Times New Roman;fontSize=16;fontColor=default;fillColor=none;" vertex="1" parent="1">
          <mxGeometry x="1420" y="450" width="80" height="50" as="geometry" />
        </mxCell>
        <mxCell id="mdeLrJrfzz5SEgivtXzU-90" style="edgeStyle=orthogonalEdgeStyle;rounded=0;orthogonalLoop=1;jettySize=auto;html=1;exitX=0.5;exitY=1;exitDx=0;exitDy=0;entryX=0.5;entryY=0;entryDx=0;entryDy=0;fontFamily=Times New Roman;fontSize=16;fontColor=default;" edge="1" parent="1" source="mdeLrJrfzz5SEgivtXzU-81" target="mdeLrJrfzz5SEgivtXzU-80">
          <mxGeometry relative="1" as="geometry" />
        </mxCell>
        <mxCell id="mdeLrJrfzz5SEgivtXzU-81" value="&lt;b&gt;&lt;font color=&quot;#ff0000&quot;&gt;i=1&lt;/font&gt;&lt;/b&gt;" style="rounded=0;whiteSpace=wrap;html=1;strokeColor=default;align=center;verticalAlign=middle;fontFamily=Times New Roman;fontSize=16;fontColor=default;fillColor=none;" vertex="1" parent="1">
          <mxGeometry x="1435" y="390" width="50" height="30" as="geometry" />
        </mxCell>
        <mxCell id="mdeLrJrfzz5SEgivtXzU-92" style="edgeStyle=orthogonalEdgeStyle;rounded=0;orthogonalLoop=1;jettySize=auto;html=1;exitX=0.5;exitY=1;exitDx=0;exitDy=0;entryX=0.5;entryY=0;entryDx=0;entryDy=0;fontFamily=Times New Roman;fontSize=16;fontColor=default;" edge="1" parent="1" source="mdeLrJrfzz5SEgivtXzU-82" target="mdeLrJrfzz5SEgivtXzU-83">
          <mxGeometry relative="1" as="geometry" />
        </mxCell>
        <mxCell id="mdeLrJrfzz5SEgivtXzU-82" value="cat /proc/tc3162/gsw_link_st&lt;div&gt;&amp;nbsp;| grep &quot;Port&lt;b&gt;&lt;font color=&quot;#ff0000&quot;&gt;{i}&lt;/font&gt;&lt;/b&gt;&quot; | grep -c Down&lt;/div&gt;" style="rounded=1;whiteSpace=wrap;html=1;strokeColor=default;align=center;verticalAlign=middle;fontFamily=Times New Roman;fontSize=16;fontColor=default;fillColor=none;" vertex="1" parent="1">
          <mxGeometry x="1340" y="530" width="240" height="60" as="geometry" />
        </mxCell>
        <mxCell id="mdeLrJrfzz5SEgivtXzU-86" value="" style="edgeStyle=orthogonalEdgeStyle;rounded=0;orthogonalLoop=1;jettySize=auto;html=1;fontFamily=Times New Roman;fontSize=16;fontColor=default;" edge="1" parent="1" source="mdeLrJrfzz5SEgivtXzU-83" target="mdeLrJrfzz5SEgivtXzU-85">
          <mxGeometry relative="1" as="geometry" />
        </mxCell>
        <mxCell id="mdeLrJrfzz5SEgivtXzU-94" style="edgeStyle=orthogonalEdgeStyle;rounded=0;orthogonalLoop=1;jettySize=auto;html=1;exitX=1;exitY=0.5;exitDx=0;exitDy=0;entryX=1;entryY=0.5;entryDx=0;entryDy=0;fontFamily=Times New Roman;fontSize=16;fontColor=default;" edge="1" parent="1" source="mdeLrJrfzz5SEgivtXzU-83" target="mdeLrJrfzz5SEgivtXzU-84">
          <mxGeometry relative="1" as="geometry">
            <Array as="points">
              <mxPoint x="1550" y="645" />
              <mxPoint x="1550" y="795" />
            </Array>
          </mxGeometry>
        </mxCell>
        <mxCell id="mdeLrJrfzz5SEgivtXzU-83" value="result = 0?" style="rhombus;whiteSpace=wrap;html=1;rounded=0;strokeColor=default;align=center;verticalAlign=middle;fontFamily=Times New Roman;fontSize=16;fontColor=default;fillColor=none;" vertex="1" parent="1">
          <mxGeometry x="1395" y="620" width="130" height="50" as="geometry" />
        </mxCell>
        <mxCell id="mdeLrJrfzz5SEgivtXzU-100" style="edgeStyle=orthogonalEdgeStyle;rounded=0;orthogonalLoop=1;jettySize=auto;html=1;exitX=0.5;exitY=1;exitDx=0;exitDy=0;entryX=0.5;entryY=0;entryDx=0;entryDy=0;fontFamily=Times New Roman;fontSize=16;fontColor=default;" edge="1" parent="1" source="mdeLrJrfzz5SEgivtXzU-84" target="mdeLrJrfzz5SEgivtXzU-99">
          <mxGeometry relative="1" as="geometry" />
        </mxCell>
        <mxCell id="mdeLrJrfzz5SEgivtXzU-84" value="" style="ellipse;whiteSpace=wrap;html=1;aspect=fixed;rounded=0;strokeColor=default;align=center;verticalAlign=middle;fontFamily=Times New Roman;fontSize=16;fontColor=default;fillColor=none;" vertex="1" parent="1">
          <mxGeometry x="1455" y="790" width="10" height="10" as="geometry" />
        </mxCell>
        <mxCell id="mdeLrJrfzz5SEgivtXzU-93" style="edgeStyle=orthogonalEdgeStyle;rounded=0;orthogonalLoop=1;jettySize=auto;html=1;exitX=0.5;exitY=1;exitDx=0;exitDy=0;entryX=0.5;entryY=0;entryDx=0;entryDy=0;fontFamily=Times New Roman;fontSize=16;fontColor=default;" edge="1" parent="1" source="mdeLrJrfzz5SEgivtXzU-85" target="mdeLrJrfzz5SEgivtXzU-84">
          <mxGeometry relative="1" as="geometry" />
        </mxCell>
        <mxCell id="mdeLrJrfzz5SEgivtXzU-85" value="&lt;b&gt;&lt;font color=&quot;#ff0000&quot;&gt;cps-&amp;gt;lan_plug++&lt;/font&gt;&lt;/b&gt;" style="rounded=1;whiteSpace=wrap;html=1;strokeColor=default;align=center;verticalAlign=middle;fontFamily=Times New Roman;fontSize=16;fontColor=default;fillColor=none;" vertex="1" parent="1">
          <mxGeometry x="1387.5" y="710" width="145" height="40" as="geometry" />
        </mxCell>
        <mxCell id="mdeLrJrfzz5SEgivtXzU-87" value="&lt;font style=&quot;font-size: 14px;&quot;&gt;True&lt;/font&gt;" style="text;html=1;align=center;verticalAlign=middle;whiteSpace=wrap;rounded=0;fontFamily=Times New Roman;fontSize=16;fontColor=default;" vertex="1" parent="1">
          <mxGeometry x="1460" y="670" width="40" height="30" as="geometry" />
        </mxCell>
        <mxCell id="mdeLrJrfzz5SEgivtXzU-95" value="&lt;font style=&quot;font-size: 14px;&quot;&gt;False&lt;/font&gt;" style="text;html=1;align=center;verticalAlign=middle;whiteSpace=wrap;rounded=0;fontFamily=Times New Roman;fontSize=16;fontColor=default;" vertex="1" parent="1">
          <mxGeometry x="1517" y="617" width="40" height="30" as="geometry" />
        </mxCell>
        <mxCell id="mdeLrJrfzz5SEgivtXzU-101" style="edgeStyle=orthogonalEdgeStyle;rounded=0;orthogonalLoop=1;jettySize=auto;html=1;exitX=0;exitY=0.5;exitDx=0;exitDy=0;entryX=0;entryY=0.5;entryDx=0;entryDy=0;fontFamily=Times New Roman;fontSize=16;fontColor=default;" edge="1" parent="1" source="mdeLrJrfzz5SEgivtXzU-99" target="mdeLrJrfzz5SEgivtXzU-80">
          <mxGeometry relative="1" as="geometry">
            <Array as="points">
              <mxPoint x="1320" y="845" />
              <mxPoint x="1320" y="475" />
            </Array>
          </mxGeometry>
        </mxCell>
        <mxCell id="mdeLrJrfzz5SEgivtXzU-99" value="i++" style="rounded=1;whiteSpace=wrap;html=1;strokeColor=default;align=center;verticalAlign=middle;fontFamily=Times New Roman;fontSize=16;fontColor=default;fillColor=none;" vertex="1" parent="1">
          <mxGeometry x="1437.5" y="830" width="45" height="30" as="geometry" />
        </mxCell>
        <mxCell id="mdeLrJrfzz5SEgivtXzU-102" value="&lt;font style=&quot;font-size: 14px;&quot;&gt;True&lt;/font&gt;" style="text;html=1;align=center;verticalAlign=middle;whiteSpace=wrap;rounded=0;fontFamily=Times New Roman;fontSize=16;fontColor=default;" vertex="1" parent="1">
          <mxGeometry x="1465" y="500" width="40" height="30" as="geometry" />
        </mxCell>
        <mxCell id="mdeLrJrfzz5SEgivtXzU-152" style="edgeStyle=orthogonalEdgeStyle;rounded=0;orthogonalLoop=1;jettySize=auto;html=1;exitX=1;exitY=0.5;exitDx=0;exitDy=0;entryX=0;entryY=0.5;entryDx=0;entryDy=0;fontFamily=Times New Roman;fontSize=16;fontColor=default;" edge="1" parent="1" source="mdeLrJrfzz5SEgivtXzU-103" target="mdeLrJrfzz5SEgivtXzU-107">
          <mxGeometry relative="1" as="geometry">
            <Array as="points">
              <mxPoint x="1630" y="920" />
              <mxPoint x="1630" y="260" />
            </Array>
          </mxGeometry>
        </mxCell>
        <mxCell id="mdeLrJrfzz5SEgivtXzU-103" value="return 0" style="rounded=1;whiteSpace=wrap;html=1;strokeColor=default;align=center;verticalAlign=middle;fontFamily=Times New Roman;fontSize=16;fontColor=default;fillColor=none;" vertex="1" parent="1">
          <mxGeometry x="1415" y="900" width="85" height="40" as="geometry" />
        </mxCell>
        <mxCell id="mdeLrJrfzz5SEgivtXzU-107" value="&lt;font color=&quot;#ff0000&quot;&gt;check_eth_plug&lt;/font&gt;&lt;br&gt;&lt;div&gt;(&lt;b&gt;*cps, *cs&lt;/b&gt;)&lt;/div&gt;" style="rounded=1;whiteSpace=wrap;html=1;strokeColor=default;align=center;verticalAlign=middle;fontFamily=Times New Roman;fontSize=16;fontColor=default;fillColor=none;" vertex="1" parent="1">
          <mxGeometry x="1695" y="230" width="190" height="60" as="geometry" />
        </mxCell>
        <mxCell id="mdeLrJrfzz5SEgivtXzU-124" style="edgeStyle=orthogonalEdgeStyle;rounded=0;orthogonalLoop=1;jettySize=auto;html=1;exitX=0.5;exitY=1;exitDx=0;exitDy=0;entryX=0.5;entryY=0;entryDx=0;entryDy=0;fontFamily=Times New Roman;fontSize=16;fontColor=default;" edge="1" parent="1" source="mdeLrJrfzz5SEgivtXzU-110" target="mdeLrJrfzz5SEgivtXzU-111">
          <mxGeometry relative="1" as="geometry" />
        </mxCell>
        <mxCell id="mdeLrJrfzz5SEgivtXzU-110" value="cat /proc/tc3162/en8811_link_st | grep -c Down" style="rounded=1;whiteSpace=wrap;html=1;strokeColor=default;align=center;verticalAlign=middle;fontFamily=Times New Roman;fontSize=16;fontColor=default;fillColor=none;" vertex="1" parent="1">
          <mxGeometry x="1670" y="400" width="240" height="60" as="geometry" />
        </mxCell>
        <mxCell id="mdeLrJrfzz5SEgivtXzU-116" value="" style="edgeStyle=orthogonalEdgeStyle;rounded=0;orthogonalLoop=1;jettySize=auto;html=1;fontFamily=Times New Roman;fontSize=16;fontColor=default;" edge="1" parent="1" source="mdeLrJrfzz5SEgivtXzU-111" target="mdeLrJrfzz5SEgivtXzU-114">
          <mxGeometry relative="1" as="geometry" />
        </mxCell>
        <mxCell id="mdeLrJrfzz5SEgivtXzU-119" style="edgeStyle=orthogonalEdgeStyle;rounded=0;orthogonalLoop=1;jettySize=auto;html=1;exitX=1;exitY=0.5;exitDx=0;exitDy=0;entryX=0.5;entryY=0;entryDx=0;entryDy=0;fontFamily=Times New Roman;fontSize=16;fontColor=default;" edge="1" parent="1" source="mdeLrJrfzz5SEgivtXzU-111" target="mdeLrJrfzz5SEgivtXzU-115">
          <mxGeometry relative="1" as="geometry" />
        </mxCell>
        <mxCell id="mdeLrJrfzz5SEgivtXzU-111" value="result = 0?" style="rhombus;whiteSpace=wrap;html=1;rounded=0;strokeColor=default;align=center;verticalAlign=middle;fontFamily=Times New Roman;fontSize=16;fontColor=default;fillColor=none;" vertex="1" parent="1">
          <mxGeometry x="1725" y="510" width="130" height="50" as="geometry" />
        </mxCell>
        <mxCell id="mdeLrJrfzz5SEgivtXzU-121" value="" style="edgeStyle=orthogonalEdgeStyle;rounded=0;orthogonalLoop=1;jettySize=auto;html=1;fontFamily=Times New Roman;fontSize=16;fontColor=default;" edge="1" parent="1" source="mdeLrJrfzz5SEgivtXzU-114" target="mdeLrJrfzz5SEgivtXzU-120">
          <mxGeometry relative="1" as="geometry" />
        </mxCell>
        <mxCell id="mdeLrJrfzz5SEgivtXzU-114" value="&lt;b&gt;&lt;font color=&quot;#ff0000&quot;&gt;cps-&amp;gt;eth_plug=1&lt;/font&gt;&lt;/b&gt;" style="rounded=0;whiteSpace=wrap;html=1;strokeColor=default;align=center;verticalAlign=middle;fontFamily=Times New Roman;fontSize=16;fontColor=default;fillColor=none;" vertex="1" parent="1">
          <mxGeometry x="1720" y="602" width="140" height="40" as="geometry" />
        </mxCell>
        <mxCell id="mdeLrJrfzz5SEgivtXzU-122" style="edgeStyle=orthogonalEdgeStyle;rounded=0;orthogonalLoop=1;jettySize=auto;html=1;exitX=0.5;exitY=1;exitDx=0;exitDy=0;entryX=0.5;entryY=0;entryDx=0;entryDy=0;fontFamily=Times New Roman;fontSize=16;fontColor=default;" edge="1" parent="1" source="mdeLrJrfzz5SEgivtXzU-115" target="mdeLrJrfzz5SEgivtXzU-120">
          <mxGeometry relative="1" as="geometry" />
        </mxCell>
        <mxCell id="mdeLrJrfzz5SEgivtXzU-115" value="&lt;b&gt;&lt;font color=&quot;#ff0000&quot;&gt;cps-&amp;gt;eth_plug=0&lt;/font&gt;&lt;/b&gt;" style="rounded=0;whiteSpace=wrap;html=1;strokeColor=default;align=center;verticalAlign=middle;fontFamily=Times New Roman;fontSize=16;fontColor=default;fillColor=none;" vertex="1" parent="1">
          <mxGeometry x="1880" y="602" width="140" height="40" as="geometry" />
        </mxCell>
        <mxCell id="mdeLrJrfzz5SEgivtXzU-117" value="&lt;font style=&quot;font-size: 14px;&quot;&gt;True&lt;/font&gt;" style="text;html=1;align=center;verticalAlign=middle;whiteSpace=wrap;rounded=0;fontFamily=Times New Roman;fontSize=16;fontColor=default;" vertex="1" parent="1">
          <mxGeometry x="1795" y="560" width="40" height="30" as="geometry" />
        </mxCell>
        <mxCell id="mdeLrJrfzz5SEgivtXzU-118" value="&lt;font style=&quot;font-size: 14px;&quot;&gt;False&lt;/font&gt;" style="text;html=1;align=center;verticalAlign=middle;whiteSpace=wrap;rounded=0;fontFamily=Times New Roman;fontSize=16;fontColor=default;" vertex="1" parent="1">
          <mxGeometry x="1860" y="505" width="40" height="30" as="geometry" />
        </mxCell>
        <mxCell id="mdeLrJrfzz5SEgivtXzU-120" value="return 0" style="rounded=1;whiteSpace=wrap;html=1;strokeColor=default;align=center;verticalAlign=middle;fontFamily=Times New Roman;fontSize=16;fontColor=default;fillColor=none;" vertex="1" parent="1">
          <mxGeometry x="1747.5" y="700" width="85" height="40" as="geometry" />
        </mxCell>
        <mxCell id="mdeLrJrfzz5SEgivtXzU-145" style="edgeStyle=orthogonalEdgeStyle;rounded=0;orthogonalLoop=1;jettySize=auto;html=1;entryX=0.5;entryY=0;entryDx=0;entryDy=0;fontFamily=Times New Roman;fontSize=16;fontColor=default;" edge="1" parent="1" source="mdeLrJrfzz5SEgivtXzU-128" target="mdeLrJrfzz5SEgivtXzU-130">
          <mxGeometry relative="1" as="geometry" />
        </mxCell>
        <mxCell id="mdeLrJrfzz5SEgivtXzU-128" value="&lt;font color=&quot;#ff0000&quot;&gt;check_dsl_plug&lt;/font&gt;&lt;div&gt;(&lt;b style=&quot;background-color: initial;&quot;&gt;*cps, *cs&lt;/b&gt;&lt;span style=&quot;background-color: initial;&quot;&gt;)&lt;/span&gt;&lt;/div&gt;" style="rounded=1;whiteSpace=wrap;html=1;strokeColor=default;align=center;verticalAlign=middle;fontFamily=Times New Roman;fontSize=16;fontColor=default;fillColor=none;" vertex="1" parent="1">
          <mxGeometry x="2095" y="230" width="140" height="60" as="geometry" />
        </mxCell>
        <mxCell id="mdeLrJrfzz5SEgivtXzU-144" style="edgeStyle=orthogonalEdgeStyle;rounded=0;orthogonalLoop=1;jettySize=auto;html=1;exitX=0.5;exitY=1;exitDx=0;exitDy=0;entryX=0.5;entryY=0;entryDx=0;entryDy=0;fontFamily=Times New Roman;fontSize=16;fontColor=default;" edge="1" parent="1" source="mdeLrJrfzz5SEgivtXzU-130" target="mdeLrJrfzz5SEgivtXzU-131">
          <mxGeometry relative="1" as="geometry" />
        </mxCell>
        <mxCell id="mdeLrJrfzz5SEgivtXzU-130" value="cat /proc/tc3162/adsl_stats | grep -c &quot;link status: up&quot;" style="rounded=1;whiteSpace=wrap;html=1;strokeColor=default;align=center;verticalAlign=middle;fontFamily=Times New Roman;fontSize=16;fontColor=default;fillColor=none;" vertex="1" parent="1">
          <mxGeometry x="2070" y="340" width="190" height="60" as="geometry" />
        </mxCell>
        <mxCell id="mdeLrJrfzz5SEgivtXzU-134" value="" style="edgeStyle=orthogonalEdgeStyle;rounded=0;orthogonalLoop=1;jettySize=auto;html=1;fontFamily=Times New Roman;fontSize=16;fontColor=default;" edge="1" parent="1" source="mdeLrJrfzz5SEgivtXzU-131" target="mdeLrJrfzz5SEgivtXzU-132">
          <mxGeometry relative="1" as="geometry" />
        </mxCell>
        <mxCell id="mdeLrJrfzz5SEgivtXzU-135" style="edgeStyle=orthogonalEdgeStyle;rounded=0;orthogonalLoop=1;jettySize=auto;html=1;exitX=1;exitY=0.5;exitDx=0;exitDy=0;entryX=0.5;entryY=0;entryDx=0;entryDy=0;fontFamily=Times New Roman;fontSize=16;fontColor=default;" edge="1" parent="1" source="mdeLrJrfzz5SEgivtXzU-131" target="mdeLrJrfzz5SEgivtXzU-133">
          <mxGeometry relative="1" as="geometry" />
        </mxCell>
        <mxCell id="mdeLrJrfzz5SEgivtXzU-131" value="result = 1?" style="rhombus;whiteSpace=wrap;html=1;rounded=0;strokeColor=default;align=center;verticalAlign=middle;fontFamily=Times New Roman;fontSize=16;fontColor=default;fillColor=none;" vertex="1" parent="1">
          <mxGeometry x="2100" y="450" width="130" height="50" as="geometry" />
        </mxCell>
        <mxCell id="mdeLrJrfzz5SEgivtXzU-139" style="edgeStyle=orthogonalEdgeStyle;rounded=0;orthogonalLoop=1;jettySize=auto;html=1;entryX=0.5;entryY=0;entryDx=0;entryDy=0;fontFamily=Times New Roman;fontSize=16;fontColor=default;" edge="1" parent="1" source="mdeLrJrfzz5SEgivtXzU-132" target="mdeLrJrfzz5SEgivtXzU-138">
          <mxGeometry relative="1" as="geometry" />
        </mxCell>
        <mxCell id="mdeLrJrfzz5SEgivtXzU-132" value="&lt;font style=&quot;&quot; color=&quot;#ff0000&quot;&gt;&lt;b&gt;cps-&amp;gt;dsl_plug=1&lt;/b&gt;&lt;/font&gt;" style="rounded=0;whiteSpace=wrap;html=1;strokeColor=default;align=center;verticalAlign=middle;fontFamily=Times New Roman;fontSize=16;fontColor=default;fillColor=none;" vertex="1" parent="1">
          <mxGeometry x="2095" y="542" width="140" height="40" as="geometry" />
        </mxCell>
        <mxCell id="mdeLrJrfzz5SEgivtXzU-142" style="edgeStyle=orthogonalEdgeStyle;rounded=0;orthogonalLoop=1;jettySize=auto;html=1;exitX=0.5;exitY=1;exitDx=0;exitDy=0;entryX=0.5;entryY=0;entryDx=0;entryDy=0;fontFamily=Times New Roman;fontSize=16;fontColor=default;" edge="1" parent="1" source="mdeLrJrfzz5SEgivtXzU-133" target="mdeLrJrfzz5SEgivtXzU-138">
          <mxGeometry relative="1" as="geometry" />
        </mxCell>
        <mxCell id="mdeLrJrfzz5SEgivtXzU-133" value="&lt;font style=&quot;&quot; color=&quot;#ff0000&quot;&gt;&lt;b&gt;cps-&amp;gt;dsl_plug=0&lt;/b&gt;&lt;/font&gt;" style="rounded=0;whiteSpace=wrap;html=1;strokeColor=default;align=center;verticalAlign=middle;fontFamily=Times New Roman;fontSize=16;fontColor=default;fillColor=none;" vertex="1" parent="1">
          <mxGeometry x="2260" y="542" width="140" height="40" as="geometry" />
        </mxCell>
        <mxCell id="mdeLrJrfzz5SEgivtXzU-136" value="&lt;font style=&quot;font-size: 14px;&quot;&gt;True&lt;/font&gt;" style="text;html=1;align=center;verticalAlign=middle;whiteSpace=wrap;rounded=0;fontFamily=Times New Roman;fontSize=16;fontColor=default;" vertex="1" parent="1">
          <mxGeometry x="2170" y="500" width="40" height="30" as="geometry" />
        </mxCell>
        <mxCell id="mdeLrJrfzz5SEgivtXzU-137" value="&lt;font style=&quot;font-size: 14px;&quot;&gt;False&lt;/font&gt;" style="text;html=1;align=center;verticalAlign=middle;whiteSpace=wrap;rounded=0;fontFamily=Times New Roman;fontSize=16;fontColor=default;" vertex="1" parent="1">
          <mxGeometry x="2235" y="445" width="40" height="30" as="geometry" />
        </mxCell>
        <mxCell id="mdeLrJrfzz5SEgivtXzU-138" value="return 0" style="rounded=1;whiteSpace=wrap;html=1;strokeColor=default;align=center;verticalAlign=middle;fontFamily=Times New Roman;fontSize=16;fontColor=default;fillColor=none;" vertex="1" parent="1">
          <mxGeometry x="2122.5" y="640" width="85" height="40" as="geometry" />
        </mxCell>
        <mxCell id="mdeLrJrfzz5SEgivtXzU-147" value="check_pon_plug&lt;div&gt;(&lt;b style=&quot;background-color: initial;&quot;&gt;*cps&lt;/b&gt;&lt;span style=&quot;background-color: initial;&quot;&gt;)&lt;/span&gt;&lt;/div&gt;" style="rounded=1;whiteSpace=wrap;html=1;strokeColor=default;align=center;verticalAlign=middle;fontFamily=Times New Roman;fontSize=16;fontColor=default;fillColor=none;" vertex="1" parent="1">
          <mxGeometry x="2430" y="230" width="130" height="60" as="geometry" />
        </mxCell>
        <mxCell id="mdeLrJrfzz5SEgivtXzU-150" style="edgeStyle=orthogonalEdgeStyle;rounded=0;orthogonalLoop=1;jettySize=auto;html=1;exitX=0.5;exitY=1;exitDx=0;exitDy=0;entryX=0.5;entryY=0;entryDx=0;entryDy=0;fontFamily=Times New Roman;fontSize=16;fontColor=default;" edge="1" parent="1" source="mdeLrJrfzz5SEgivtXzU-148" target="mdeLrJrfzz5SEgivtXzU-81">
          <mxGeometry relative="1" as="geometry" />
        </mxCell>
        <mxCell id="mdeLrJrfzz5SEgivtXzU-148" value="&lt;b&gt;&lt;font color=&quot;#ff0000&quot;&gt;cps&lt;font face=&quot;Lucida Console&quot;&gt;-&amp;gt;&lt;/font&gt;lan_plug=0&lt;/font&gt;&lt;/b&gt;" style="rounded=0;whiteSpace=wrap;html=1;strokeColor=default;align=center;verticalAlign=middle;fontFamily=Times New Roman;fontSize=16;fontColor=default;fillColor=none;" vertex="1" parent="1">
          <mxGeometry x="1390" y="320" width="140" height="40" as="geometry" />
        </mxCell>
        <mxCell id="mdeLrJrfzz5SEgivtXzU-154" value="&lt;font style=&quot;&quot; color=&quot;#ff0000&quot;&gt;&lt;b&gt;cps&lt;font face=&quot;Lucida Console&quot;&gt;-&amp;gt;&lt;/font&gt;eth_plug=0&lt;/b&gt;&lt;/font&gt;" style="rounded=0;whiteSpace=wrap;html=1;strokeColor=default;align=center;verticalAlign=middle;fontFamily=Times New Roman;fontSize=16;fontColor=default;fillColor=none;" vertex="1" parent="1">
          <mxGeometry x="1720" y="320" width="140" height="40" as="geometry" />
        </mxCell>
      </root>
    </mxGraphModel>
  </diagram>
</mxfile>
